<svg width="126" height="36" viewBox="0 0 126 36" fill="none" xmlns="http://www.w3.org/2000/svg">
<path d="M11.946 25.242C11.1247 25.242 10.3767 25.0587 9.702 24.692C9.042 24.3107 8.52133 23.79 8.14 23.13C7.77333 22.4553 7.59 21.6853 7.59 20.82V13.45C7.59 13.1127 7.50933 12.812 7.348 12.548C7.18667 12.2693 6.96667 12.0493 6.688 11.888C6.424 11.7267 6.13067 11.646 5.808 11.646C5.48533 11.646 5.192 11.7267 4.928 11.888C4.664 12.0493 4.45133 12.2693 4.29 12.548C4.12867 12.812 4.048 13.1127 4.048 13.45V25H1.43V13.78C1.43 12.944 1.61333 12.196 1.98 11.536C2.34667 10.8613 2.86 10.326 3.52 9.93C4.18 9.534 4.94267 9.336 5.808 9.336C6.688 9.336 7.458 9.534 8.118 9.93C8.778 10.326 9.29133 10.8613 9.658 11.536C10.0247 12.196 10.208 12.944 10.208 13.78V21.15C10.208 21.4727 10.2887 21.7733 10.45 22.052C10.6113 22.316 10.824 22.5287 11.088 22.69C11.352 22.8513 11.638 22.932 11.946 22.932C12.2687 22.932 12.562 22.8513 12.826 22.69C13.09 22.5287 13.3027 22.316 13.464 22.052C13.6253 21.7733 13.706 21.4727 13.706 21.15V13.78C13.706 12.944 13.8893 12.196 14.256 11.536C14.6227 10.8613 15.136 10.326 15.796 9.93C16.4707 9.534 17.2407 9.336 18.106 9.336C18.986 9.336 19.7487 9.534 20.394 9.93C21.054 10.326 21.5673 10.8613 21.934 11.536C22.3007 12.196 22.484 12.944 22.484 13.78V25H19.844V13.45C19.844 13.1127 19.7633 12.812 19.602 12.548C19.4553 12.2693 19.25 12.0493 18.986 11.888C18.722 11.7267 18.4287 11.646 18.106 11.646C17.7833 11.646 17.4827 11.7267 17.204 11.888C16.94 12.0493 16.7273 12.2693 16.566 12.548C16.4047 12.812 16.324 13.1127 16.324 13.45V20.82C16.324 21.6853 16.1333 22.4553 15.752 23.13C15.3707 23.79 14.85 24.3107 14.19 24.692C13.5447 25.0587 12.7967 25.242 11.946 25.242ZM29.5661 29.466V25.154C28.7154 24.9927 27.9821 24.692 27.3661 24.252C26.7501 23.7973 26.2734 23.2253 25.9361 22.536C25.5988 21.8467 25.4301 21.084 25.4301 20.248V13.78H27.9601V20.226C27.9601 20.798 28.0848 21.304 28.3341 21.744C28.5981 22.1693 28.9428 22.5067 29.3681 22.756C29.8081 22.9907 30.2848 23.108 30.7981 23.108C31.3114 23.108 31.7808 22.9907 32.2061 22.756C32.6461 22.5067 32.9908 22.1693 33.2401 21.744C33.5041 21.304 33.6361 20.798 33.6361 20.226V13.78H36.1661V20.248C36.1661 21.084 35.9974 21.8393 35.6601 22.514C35.3228 23.1887 34.8461 23.7607 34.2301 24.23C33.6288 24.6847 32.9101 24.9853 32.0741 25.132V29.466H29.5661ZM39.2896 25V9.6H47.7816C48.5443 9.6 49.2189 9.76867 49.8056 10.106C50.4069 10.4433 50.8763 10.9053 51.2136 11.492C51.5656 12.0787 51.7416 12.7607 51.7416 13.538C51.7416 14.0513 51.6316 14.5427 51.4116 15.012C51.2063 15.4813 50.9203 15.892 50.5536 16.244C50.1869 16.5813 49.7616 16.8453 49.2776 17.036C49.8349 17.1973 50.3263 17.4687 50.7516 17.85C51.1916 18.2313 51.5363 18.686 51.7856 19.214C52.0349 19.742 52.1596 20.3067 52.1596 20.908C52.1596 21.7 51.9763 22.404 51.6096 23.02C51.2576 23.636 50.7663 24.12 50.1356 24.472C49.5196 24.824 48.8083 25 48.0016 25H39.2896ZM41.9076 22.668H47.2976C47.7376 22.668 48.1263 22.5727 48.4636 22.382C48.8009 22.1767 49.0576 21.9053 49.2336 21.568C49.4243 21.216 49.5196 20.8493 49.5196 20.468C49.5196 20.072 49.4243 19.7127 49.2336 19.39C49.0429 19.0527 48.7789 18.7813 48.4416 18.576C48.1043 18.3707 47.7083 18.268 47.2536 18.268H41.9076V22.668ZM41.9076 16.046H46.9676C47.3783 16.046 47.7449 15.9507 48.0676 15.76C48.4049 15.5693 48.6616 15.32 48.8376 15.012C49.0283 14.6893 49.1236 14.3447 49.1236 13.978C49.1236 13.5967 49.0356 13.252 48.8596 12.944C48.6836 12.636 48.4343 12.3867 48.1116 12.196C47.8036 12.0053 47.4443 11.91 47.0336 11.91H41.9076V16.046ZM59.9304 25.264C58.7717 25.264 57.7451 25.0073 56.8504 24.494C55.9557 23.966 55.2444 23.262 54.7164 22.382C54.2031 21.4873 53.9464 20.49 53.9464 19.39C53.9464 18.29 54.2031 17.3 54.7164 16.42C55.2444 15.5253 55.9557 14.8213 56.8504 14.308C57.7451 13.78 58.7717 13.516 59.9304 13.516C61.0744 13.516 62.0937 13.78 62.9884 14.308C63.8831 14.8213 64.5871 15.518 65.1004 16.398C65.6284 17.278 65.8924 18.2753 65.8924 19.39C65.8924 20.49 65.6284 21.4873 65.1004 22.382C64.5871 23.262 63.8831 23.966 62.9884 24.494C62.0937 25.0073 61.0744 25.264 59.9304 25.264ZM59.9304 23.108C60.6197 23.108 61.2211 22.9467 61.7344 22.624C62.2477 22.2867 62.6437 21.8393 62.9224 21.282C63.2011 20.7247 63.3404 20.094 63.3404 19.39C63.3404 18.7007 63.2011 18.0773 62.9224 17.52C62.6437 16.948 62.2477 16.5007 61.7344 16.178C61.2211 15.8407 60.6197 15.672 59.9304 15.672C59.2264 15.672 58.6177 15.8407 58.1044 16.178C57.6057 16.5007 57.2097 16.9407 56.9164 17.498C56.6377 18.0553 56.4984 18.686 56.4984 19.39C56.4984 20.0793 56.6377 20.71 56.9164 21.282C57.2097 21.8393 57.6057 22.2867 58.1044 22.624C58.6177 22.9467 59.2264 23.108 59.9304 23.108ZM72.8454 25.264C71.7748 25.264 70.8508 25 70.0734 24.472C69.2961 23.944 68.6948 23.24 68.2694 22.36C67.8588 21.4653 67.6534 20.4827 67.6534 19.412C67.6534 18.2973 67.8881 17.3 68.3574 16.42C68.8414 15.5253 69.5234 14.8213 70.4034 14.308C71.2981 13.78 72.3614 13.516 73.5934 13.516C74.8108 13.516 75.8448 13.78 76.6954 14.308C77.5608 14.8213 78.2208 15.5253 78.6754 16.42C79.1448 17.3 79.3794 18.2827 79.3794 19.368V25H76.8494V22.91H76.8054C76.5854 23.3207 76.2994 23.7093 75.9474 24.076C75.5954 24.428 75.1628 24.714 74.6494 24.934C74.1361 25.154 73.5348 25.264 72.8454 25.264ZM73.5274 23.108C74.1874 23.108 74.7594 22.9467 75.2434 22.624C75.7421 22.2867 76.1308 21.8393 76.4094 21.282C76.6881 20.71 76.8201 20.072 76.8054 19.368C76.8054 18.664 76.6734 18.0407 76.4094 17.498C76.1454 16.9407 75.7714 16.5007 75.2874 16.178C74.8034 15.8407 74.2241 15.672 73.5494 15.672C72.8454 15.672 72.2441 15.8407 71.7454 16.178C71.2468 16.5007 70.8654 16.9407 70.6014 17.498C70.3374 18.0553 70.2054 18.686 70.2054 19.39C70.2054 20.0793 70.3374 20.71 70.6014 21.282C70.8654 21.8393 71.2394 22.2867 71.7234 22.624C72.2221 22.9467 72.8234 23.108 73.5274 23.108ZM82.3187 25V16.97C82.3187 15.9727 82.5973 15.1953 83.1547 14.638C83.7267 14.066 84.5113 13.78 85.5087 13.78H88.2147V15.936H85.9707C85.6187 15.936 85.34 16.0387 85.1347 16.244C84.944 16.4493 84.8487 16.728 84.8487 17.08V25H82.3187ZM95.1832 25.264C94.2885 25.264 93.4745 25.1247 92.7412 24.846C92.0225 24.5527 91.4065 24.1347 90.8932 23.592C90.3945 23.0493 90.0058 22.4113 89.7272 21.678C89.4632 20.93 89.3312 20.1087 89.3312 19.214C89.3312 18.07 89.5585 17.0727 90.0132 16.222C90.4825 15.3713 91.1278 14.7113 91.9492 14.242C92.7705 13.758 93.7092 13.516 94.7652 13.516C95.2932 13.516 95.7918 13.5967 96.2612 13.758C96.7305 13.9193 97.1558 14.1467 97.5372 14.44C97.9185 14.7333 98.2265 15.078 98.4612 15.474H98.4832V8.94H101.013V19.258C101.013 20.49 100.764 21.5607 100.265 22.47C99.7812 23.3647 99.0992 24.054 98.2192 24.538C97.3538 25.022 96.3418 25.264 95.1832 25.264ZM95.1832 23.108C95.8285 23.108 96.3932 22.954 96.8772 22.646C97.3758 22.3233 97.7645 21.8833 98.0432 21.326C98.3218 20.7687 98.4612 20.1233 98.4612 19.39C98.4612 18.6567 98.3218 18.0113 98.0432 17.454C97.7645 16.8967 97.3758 16.464 96.8772 16.156C96.3932 15.8333 95.8212 15.672 95.1612 15.672C94.5305 15.672 93.9658 15.8333 93.4672 16.156C92.9685 16.4787 92.5798 16.9187 92.3012 17.476C92.0225 18.0333 91.8832 18.6713 91.8832 19.39C91.8832 20.1233 92.0225 20.7687 92.3012 21.326C92.5798 21.8833 92.9685 22.3233 93.4672 22.646C93.9805 22.954 94.5525 23.108 95.1832 23.108Z" fill="url(#paint0_linear_1_49)"/>
<rect y="34" width="126" height="2" fill="url(#paint1_linear_1_49)"/>
<defs>
<linearGradient id="paint0_linear_1_49" x1="-63.2517" y1="17.8431" x2="139.983" y2="17.8431" gradientUnits="userSpaceOnUse">
<stop stop-color="#0019FF"/>
<stop offset="1" stop-color="#FF00A8"/>
</linearGradient>
<linearGradient id="paint1_linear_1_49" x1="-77.3758" y1="35.0196" x2="171.242" y2="35.0195" gradientUnits="userSpaceOnUse">
<stop stop-color="#0019FF"/>
<stop offset="1" stop-color="#FF00A8"/>
</linearGradient>
</defs>
</svg>
