<svg xmlns="http://www.w3.org/2000/svg"><style>:root svg:not(:target){display:none}</style><svg viewBox="0 0 14 8" fill="none" id="arrow-icon"><path d="M12.1781 1.0525L6.99996 6.23187L1.82183 1.05187C1.57496 0.804996 1.17558 0.804996 0.928706 1.05187C0.682456 1.29875 0.682456 1.69875 0.928706 1.94562L6.55308 7.57187C6.79933 7.81875 7.19933 7.81875 7.44558 7.57187L13.07 1.94562C13.3162 1.69875 13.3162 1.29812 13.07 1.05125C12.8243 0.80562 12.4243 0.805621 12.1781 1.0525Z" fill="url(#arrow-icon_0)"></path><defs><linearGradient id="arrow-icon_0" x1="-6.93868" y1="4.37942" x2="17.7467" y2="4.37942" gradientUnits="userSpaceOnUse"><stop stop-color="#0019FF"></stop><stop offset="1" stop-color="#FF00A8"></stop></linearGradient></defs></svg><svg viewBox="0 0 22 22" fill="none" id="board"><path d="M21 0.25H1C0.801088 0.25 0.610322 0.329018 0.46967 0.46967C0.329018 0.610322 0.25 0.801088 0.25 1V21C0.25 21.1989 0.329018 21.3897 0.46967 21.5303C0.610322 21.671 0.801088 21.75 1 21.75H21C21.1989 21.75 21.3897 21.671 21.5303 21.5303C21.671 21.3897 21.75 21.1989 21.75 21V1C21.75 0.801088 21.671 0.610322 21.5303 0.46967C21.3897 0.329018 21.1989 0.25 21 0.25ZM11 15.9H4.445C4.24609 15.9 4.05532 15.821 3.91467 15.6803C3.77402 15.5397 3.695 15.3489 3.695 15.15C3.695 14.9511 3.77402 14.7603 3.91467 14.6197C4.05532 14.479 4.24609 14.4 4.445 14.4H11C11.1989 14.4 11.3897 14.479 11.5303 14.6197C11.671 14.7603 11.75 14.9511 11.75 15.15C11.75 15.3489 11.671 15.5397 11.5303 15.6803C11.3897 15.821 11.1989 15.9 11 15.9ZM14.28 11.75H4.445C4.24609 11.75 4.05532 11.671 3.91467 11.5303C3.77402 11.3897 3.695 11.1989 3.695 11C3.695 10.8011 3.77402 10.6103 3.91467 10.4697C4.05532 10.329 4.24609 10.25 4.445 10.25H14.28C14.4789 10.25 14.6697 10.329 14.8103 10.4697C14.951 10.6103 15.03 10.8011 15.03 11C15.03 11.1989 14.951 11.3897 14.8103 11.5303C14.6697 11.671 14.4789 11.75 14.28 11.75ZM17.555 7.6H4.445C4.24609 7.6 4.05532 7.52098 3.91467 7.38033C3.77402 7.23968 3.695 7.04891 3.695 6.85C3.695 6.65109 3.77402 6.46032 3.91467 6.31967C4.05532 6.17902 4.24609 6.1 4.445 6.1H17.555C17.7539 6.1 17.9447 6.17902 18.0853 6.31967C18.226 6.46032 18.305 6.65109 18.305 6.85C18.305 7.04891 18.226 7.23968 18.0853 7.38033C17.9447 7.52098 17.7539 7.6 17.555 7.6Z" fill="#6100FF"></path></svg><svg viewBox="0 0 20 20" fill="none" id="close-popup"><path d="M19.5511 17.3766L12.1693 9.97978L19.5111 2.62335C20.1098 2.02311 20.1098 1.05009 19.5111 0.45018C18.912 -0.149734 17.9413 -0.149734 17.3422 0.45018L10.0004 7.80661L2.65891 0.45018C2.05986 -0.149734 1.08911 -0.149734 0.490053 0.45018C-0.108999 1.05042 -0.108999 2.02344 0.490053 2.62335L7.83156 9.97978L0.449045 17.3766C-0.150007 17.9769 -0.150007 18.9496 0.449045 19.5498C0.748571 19.8499 1.14094 19.9998 1.53364 19.9998C1.92633 19.9998 2.3187 19.8499 2.61823 19.5498L10.0004 12.153L17.3823 19.5498C17.6818 19.8499 18.0742 19.9998 18.4669 19.9998C18.8596 19.9998 19.2519 19.8499 19.5515 19.5498C20.1498 18.9499 20.1498 17.9769 19.5511 17.3766Z" fill="#56577D"></path></svg><svg viewBox="0 0 14 14" fill="none" id="close"><g clip-path="url(#close_0)"><path d="M7.00058 0C3.13345 0 0 3.13396 0 7.00135C0 10.8664 3.13345 14.0002 7.00058 14.0002C10.8683 14.0002 14 10.8664 14 7.00135C14 3.13377 10.8683 0 7.00058 0ZM10.0617 9.04859C10.3283 9.3238 10.2459 9.83672 9.87638 10.195C9.50703 10.5533 8.99174 10.6219 8.72463 10.3467L6.9799 8.55036L5.18279 10.2949C4.90814 10.5615 4.39517 10.478 4.03683 10.1092C3.67849 9.74047 3.61046 9.22523 3.88511 8.95815L5.68222 7.21356L3.93749 5.41659C3.67096 5.14197 3.75465 4.62847 4.12342 4.27015C4.49162 3.91242 5.00806 3.8442 5.27401 4.11844L7.01875 5.91521L8.81644 4.1714C9.09167 3.90431 9.60463 3.9878 9.96239 4.35654C10.3213 4.72529 10.3888 5.24111 10.1141 5.5082L8.31759 7.25221L10.0617 9.04859Z" fill="#B9BACF"></path></g><defs><clipPath id="close_0"><rect width="14" height="14" fill="white"></rect></clipPath></defs></svg><svg viewBox="0 0 20 22" fill="none" id="home"><path d="M16.675 21.75H3.325C2.8982 21.75 2.47559 21.6659 2.08128 21.5026C1.68697 21.3393 1.32869 21.0999 1.0269 20.7981C0.725113 20.4963 0.485719 20.138 0.322391 19.7437C0.159064 19.3494 0.0749998 18.9268 0.0749998 18.5V10.57C0.0757918 10.1239 0.168555 9.68275 0.347496 9.27412C0.526436 8.86548 0.78771 8.49812 1.115 8.195L7.81 1.13C8.40745 0.567113 9.19578 0.251154 10.0166 0.245589C10.8374 0.240024 11.63 0.545265 12.235 1.1C12.27 1.13 18.86 8.16 18.895 8.2C19.2195 8.50266 19.4783 8.86875 19.6555 9.27557C19.8327 9.68239 19.9244 10.1213 19.925 10.565V18.5C19.925 18.9268 19.8409 19.3494 19.6776 19.7437C19.5143 20.138 19.2749 20.4963 18.9731 20.7981C18.6713 21.0999 18.313 21.3393 17.9187 21.5026C17.5244 21.6659 17.1018 21.75 16.675 21.75ZM8.88 2.185L2.185 9.245C1.99426 9.4092 1.84107 9.6125 1.73582 9.84112C1.63057 10.0697 1.57572 10.3183 1.575 10.57V18.5C1.57566 18.7292 1.62144 18.9559 1.70974 19.1674C1.79804 19.3789 1.92713 19.5709 2.08963 19.7324C2.25213 19.894 2.44487 20.022 2.65684 20.1091C2.8688 20.1962 3.09584 20.2407 3.325 20.24H16.675C16.9042 20.2407 17.1312 20.1962 17.3432 20.1091C17.5551 20.022 17.7479 19.894 17.9104 19.7324C18.0729 19.5709 18.202 19.3789 18.2903 19.1674C18.3786 18.9559 18.4243 18.7292 18.425 18.5V10.565C18.4252 10.3144 18.3712 10.0667 18.2668 9.83887C18.1624 9.61105 18.01 9.40847 17.82 9.245L11.2 2.19C10.8811 1.905 10.4686 1.74704 10.0409 1.74612C9.61326 1.74519 9.20012 1.90137 8.88 2.185Z" fill="#56577D"></path></svg><svg viewBox="0 0 18 18" fill="none" id="log-out"><path fill-rule="evenodd" clip-rule="evenodd" d="M15.875 8.0625H5.25C4.7325 8.0625 4.3125 8.4825 4.3125 9C4.3125 9.5175 4.7325 9.9375 5.25 9.9375H15.875C16.3925 9.9375 16.8125 9.5175 16.8125 9C16.8125 8.4825 16.3925 8.0625 15.875 8.0625Z" fill="#B9BACF"></path><path fill-rule="evenodd" clip-rule="evenodd" d="M14.0376 12.7875L17.1626 9.66249C17.5288 9.29624 17.5288 8.70374 17.1626 8.33749L14.0376 5.21249C13.6726 4.84624 13.0776 4.84624 12.7126 5.21249C12.3463 5.57749 12.3463 6.17249 12.7126 6.53749L15.1738 8.99999L12.7126 11.4625C12.3463 11.8275 12.3463 12.4225 12.7126 12.7875C13.0776 13.1537 13.6726 13.1537 14.0376 12.7875Z" fill="#B9BACF"></path><path fill-rule="evenodd" clip-rule="evenodd" d="M9 15.5625H2.75C2.6675 15.5625 2.5875 15.53 2.52875 15.4713C2.47 15.4125 2.4375 15.3325 2.4375 15.25V2.75C2.4375 2.6675 2.47 2.5875 2.52875 2.52875C2.5875 2.47 2.6675 2.4375 2.75 2.4375H9C9.5175 2.4375 9.9375 2.0175 9.9375 1.5C9.9375 0.9825 9.5175 0.5625 9 0.5625C7.07875 0.5625 4.67125 0.5625 2.75 0.5625C2.17 0.5625 1.61375 0.7925 1.20375 1.20375C0.7925 1.61375 0.5625 2.17 0.5625 2.75C0.5625 5.575 0.5625 12.425 0.5625 15.25C0.5625 15.83 0.7925 16.3863 1.20375 16.7963C1.61375 17.2075 2.17 17.4375 2.75 17.4375H9C9.5175 17.4375 9.9375 17.0175 9.9375 16.5C9.9375 15.9825 9.5175 15.5625 9 15.5625Z" fill="#B9BACF"></path></svg><svg viewBox="0 0 28 18" fill="none" id="main-menu-open"><path d="M1.5 2.02499H26.5C26.7486 2.02499 26.9871 1.92622 27.1629 1.75041C27.3387 1.57459 27.4375 1.33613 27.4375 1.08749C27.4375 0.838853 27.3387 0.600397 27.1629 0.424582C26.9871 0.248766 26.7486 0.149994 26.5 0.149994H1.5C1.25136 0.149994 1.0129 0.248766 0.837087 0.424582C0.661272 0.600397 0.5625 0.838853 0.5625 1.08749C0.5625 1.33613 0.661272 1.57459 0.837087 1.75041C1.0129 1.92622 1.25136 2.02499 1.5 2.02499Z" fill="#B9BACF"></path><path d="M26.5 8.0625H1.5C1.25136 8.0625 1.0129 8.16127 0.837087 8.33709C0.661272 8.5129 0.5625 8.75136 0.5625 9C0.5625 9.24864 0.661272 9.4871 0.837087 9.66291C1.0129 9.83873 1.25136 9.9375 1.5 9.9375H26.5C26.7486 9.9375 26.9871 9.83873 27.1629 9.66291C27.3387 9.4871 27.4375 9.24864 27.4375 9C27.4375 8.75136 27.3387 8.5129 27.1629 8.33709C26.9871 8.16127 26.7486 8.0625 26.5 8.0625Z" fill="#B9BACF"></path><path d="M26.5 15.975H1.5C1.25136 15.975 1.0129 16.0738 0.837087 16.2496C0.661272 16.4254 0.5625 16.6639 0.5625 16.9125C0.5625 17.1611 0.661272 17.3996 0.837087 17.5754C1.0129 17.7512 1.25136 17.85 1.5 17.85H26.5C26.7486 17.85 26.9871 17.7512 27.1629 17.5754C27.3387 17.3996 27.4375 17.1611 27.4375 16.9125C27.4375 16.6639 27.3387 16.4254 27.1629 16.2496C26.9871 16.0738 26.7486 15.975 26.5 15.975Z" fill="#B9BACF"></path></svg><svg viewBox="0 0 24 26" fill="none" id="notification"><path d="M22.325 19.3L21.3625 17.8125C19.7 15.3625 18.825 12.475 18.825 9.5C18.825 6.35 16.7251 3.8125 13.9251 2.9375C13.6626 2.15 12.8751 1.625 12.0001 1.625C11.1251 1.625 10.3376 2.15 10.0751 2.9375C7.27505 3.8125 5.17505 6.35 5.17505 9.5C5.17505 12.475 4.30005 15.3625 2.63755 17.8125L1.67505 19.3C1.23755 20 1.67505 20.875 2.55005 20.875H21.45C22.325 20.875 22.7625 20 22.325 19.3Z" stroke="#56577D" stroke-width="2" stroke-miterlimit="10" stroke-linecap="round" stroke-linejoin="round"></path><path d="M15.5 20.875C15.5 22.8 13.925 24.375 12 24.375C10.075 24.375 8.5 22.8 8.5 20.875" stroke="#56577D" stroke-width="2" stroke-miterlimit="10" stroke-linecap="round" stroke-linejoin="round"></path></svg><svg viewBox="0 0 24 24" fill="none" id="plus-icon-round"><g clip-path="url(#plus-icon-round_3)"><path d="M12 18.75V5.25" stroke="url(#plus-icon-round_0)" stroke-miterlimit="10"></path><path d="M5.25 12H18.75" stroke="url(#plus-icon-round_1)" stroke-miterlimit="10"></path><path d="M12 23.6246C18.4201 23.6246 23.6246 18.4201 23.6246 12C23.6246 5.57989 18.4201 0.375366 12 0.375366C5.57989 0.375366 0.375366 5.57989 0.375366 12C0.375366 18.4201 5.57989 23.6246 12 23.6246Z" stroke="url(#plus-icon-round_2)" stroke-miterlimit="10"></path></g><defs><linearGradient id="plus-icon-round_0" x1="11.3859" y1="12.1324" x2="13.3591" y2="12.1324" gradientUnits="userSpaceOnUse"><stop stop-color="#0019FF"></stop><stop offset="1" stop-color="#FF00A8"></stop></linearGradient><linearGradient id="plus-icon-round_1" x1="-3.04027" y1="12.5098" x2="23.5973" y2="12.5098" gradientUnits="userSpaceOnUse"><stop stop-color="#0019FF"></stop><stop offset="1" stop-color="#FF00A8"></stop></linearGradient><linearGradient id="plus-icon-round_2" x1="-13.9019" y1="12.2279" x2="31.9725" y2="12.2279" gradientUnits="userSpaceOnUse"><stop stop-color="#0019FF"></stop><stop offset="1" stop-color="#FF00A8"></stop></linearGradient><clipPath id="plus-icon-round_3"><rect width="24" height="24" fill="white"></rect></clipPath></defs></svg><svg viewBox="0 0 30 30" fill="none" id="plus-icon"><path d="M21.6017 0.833328C26.4183 0.833328 29.1667 3.55333 29.1667 8.38416V21.6158C29.1667 26.4183 26.4325 29.1667 21.6158 29.1667H8.38418C3.55334 29.1667 0.833344 26.4183 0.833344 21.6158V8.38416C0.833344 3.55333 3.55334 0.833328 8.38418 0.833328H21.6017ZM14.9858 8.63916C14.3342 8.63916 13.81 9.16333 13.81 9.81499V13.81H9.80084C9.48918 13.81 9.19168 13.9375 8.96501 14.15C8.75251 14.3767 8.62501 14.6727 8.62501 14.9858C8.62501 15.6375 9.14918 16.1617 9.80084 16.1758H13.81V20.185C13.81 20.8367 14.3342 21.3608 14.9858 21.3608C15.6375 21.3608 16.1617 20.8367 16.1617 20.185V16.1758H20.185C20.8367 16.1617 21.3608 15.6375 21.3608 14.9858C21.3608 14.3342 20.8367 13.81 20.185 13.81H16.1617V9.81499C16.1617 9.16333 15.6375 8.63916 14.9858 8.63916Z" fill="url(#plus-icon_0)"></path><defs><linearGradient id="plus-icon_0" x1="-16.566" y1="15.2778" x2="39.3401" y2="15.2778" gradientUnits="userSpaceOnUse"><stop stop-color="#0019FF"></stop><stop offset="1" stop-color="#FF00A8"></stop></linearGradient></defs></svg><svg viewBox="0 0 24 24" fill="none" id="settings"><path d="M23.385 11.53L21.68 9.405L22.095 6.715C22.1223 6.54582 22.0905 6.37238 22.0049 6.22392C21.9193 6.07546 21.7851 5.96106 21.625 5.9L19.085 4.9L18.085 2.36C18.0239 2.19987 17.9095 2.06569 17.7611 1.98007C17.6126 1.89446 17.4392 1.86265 17.27 1.89L14.58 2.305L12.47 0.614997C12.3368 0.507866 12.171 0.449463 12 0.449463C11.829 0.449463 11.6632 0.507866 11.53 0.614997L9.405 2.32L6.715 1.905C6.54582 1.87765 6.37238 1.90946 6.22392 1.99507C6.07547 2.08069 5.96106 2.21487 5.9 2.375L4.9 4.915L2.36 5.915C2.19987 5.97606 2.06569 6.09046 1.98008 6.23892C1.89446 6.38738 1.86265 6.56082 1.89 6.73L2.305 9.42L0.615 11.53C0.507869 11.6632 0.449466 11.829 0.449466 12C0.449466 12.171 0.507869 12.3368 0.615 12.47L2.32 14.595L1.905 17.285C1.87765 17.4542 1.90946 17.6276 1.99508 17.7761C2.08069 17.9245 2.21487 18.0389 2.375 18.1L4.915 19.1L5.915 21.64C5.97684 21.7996 6.09139 21.9332 6.23964 22.0187C6.38789 22.1042 6.56091 22.1364 6.73 22.11L9.42 21.695L11.545 23.4C11.6782 23.5071 11.844 23.5655 12.015 23.5655C12.186 23.5655 12.3518 23.5071 12.485 23.4L14.61 21.695L17.3 22.11C17.4692 22.1373 17.6426 22.1055 17.7911 22.0199C17.9395 21.9343 18.0539 21.8001 18.115 21.64L19.115 19.1L21.655 18.1C21.8151 18.0389 21.9493 17.9245 22.0349 17.7761C22.1205 17.6276 22.1523 17.4542 22.125 17.285L21.71 14.595L23.415 12.47C23.5179 12.3334 23.5711 12.1657 23.5656 11.9947C23.5602 11.8237 23.4964 11.6598 23.385 11.53ZM20.305 13.915C20.2385 13.9957 20.1899 14.0895 20.1623 14.1904C20.1347 14.2912 20.1288 14.3967 20.145 14.5L20.5 16.92L18.215 17.805C18.1176 17.8432 18.0291 17.9011 17.9551 17.9751C17.8811 18.0491 17.8232 18.1376 17.785 18.235L16.92 20.5L14.5 20.145C14.3975 20.1296 14.2929 20.1358 14.193 20.1634C14.0931 20.191 14.0001 20.2392 13.92 20.305L12 21.84L10.085 20.305C9.95252 20.1966 9.78617 20.1382 9.615 20.14H9.5L7.08 20.5L6.195 18.215C6.15602 18.118 6.09783 18.03 6.02394 17.9561C5.95004 17.8822 5.86196 17.824 5.765 17.785L3.5 16.92L3.855 14.5C3.87044 14.3975 3.86417 14.2929 3.83661 14.193C3.80904 14.0931 3.7608 14.0001 3.695 13.92L2.16 12L3.695 10.085C3.76148 10.0043 3.81011 9.91047 3.83768 9.80964C3.86526 9.70881 3.87116 9.60328 3.855 9.5L3.5 7.08L5.785 6.195C5.88288 6.15759 5.97178 6.09996 6.04587 6.02587C6.11997 5.95177 6.1776 5.86288 6.215 5.765L7.08 3.5L9.505 3.875C9.60749 3.89043 9.71208 3.88417 9.812 3.8566C9.91191 3.82904 10.0049 3.7808 10.085 3.715L12 2.16L13.915 3.695C13.9951 3.7608 14.0881 3.80904 14.188 3.8366C14.2879 3.86417 14.3925 3.87043 14.495 3.855L16.92 3.5L17.805 5.785C17.8432 5.88241 17.9011 5.97089 17.9751 6.04488C18.0491 6.11887 18.1376 6.17679 18.235 6.215L20.5 7.08L20.145 9.5C20.1296 9.60249 20.1358 9.70708 20.1634 9.80699C20.191 9.90691 20.2392 9.99992 20.305 10.08L21.84 12L20.305 13.915Z" fill="#56577D"></path><path d="M12 6.26999C10.4807 6.27131 9.02404 6.87543 7.94974 7.94973C6.87544 9.02403 6.27132 10.4807 6.27 12C6.585 19.6 17.415 19.6 17.73 12C17.7287 10.4807 17.1246 9.02403 16.0503 7.94973C14.976 6.87543 13.5193 6.27131 12 6.26999ZM12 16.23C10.8789 16.2273 9.80456 15.7808 9.01186 14.9881C8.21915 14.1954 7.77264 13.121 7.77 12C8 6.39499 16 6.39999 16.23 12C16.2274 13.121 15.7809 14.1954 14.9881 14.9881C14.1954 15.7808 13.1211 16.2273 12 16.23Z" fill="#56577D"></path></svg><svg viewBox="0 0 19 5" fill="none" id="task-card-icon"><path d="M10.2729 0.272736H8.27285C7.99508 0.272736 7.75898 0.369969 7.5645 0.564436C7.37003 0.758903 7.27283 0.99489 7.27283 1.27276V3.27289C7.27283 3.5508 7.37006 3.78682 7.5645 3.98107C7.75898 4.17561 7.99508 4.27274 8.27285 4.27274H10.2729C10.5507 4.27274 10.7868 4.17561 10.9812 3.98107C11.1756 3.78682 11.2728 3.5508 11.2728 3.27289V1.27276C11.2728 0.99489 11.1756 0.758793 10.9812 0.564436C10.7868 0.369969 10.5507 0.272736 10.2729 0.272736Z" fill="#7B7CA6"></path><path d="M3 0.272736H0.999927C0.722234 0.272736 0.486062 0.36997 0.291594 0.564439C0.0971249 0.758871 0 0.994897 0 1.27274V3.27288C0 3.55079 0.0971249 3.78682 0.291594 3.98107C0.486062 4.17561 0.722234 4.27274 0.999927 4.27274H3C3.27769 4.27274 3.51386 4.17561 3.70833 3.98107C3.9028 3.78682 4 3.55079 4 3.27288V1.27274C4 0.994861 3.9028 0.758762 3.70833 0.564402C3.51386 0.37008 3.27769 0.272736 3 0.272736Z" fill="#7B7CA6"></path><path d="M18.2537 0.564436C18.0592 0.369969 17.823 0.272736 17.5453 0.272736H15.5453C15.2673 0.272736 15.0313 0.369969 14.8369 0.564436C14.6425 0.758903 14.5452 0.99489 14.5452 1.27276V3.27289C14.5452 3.5508 14.6425 3.78682 14.8369 3.98107C15.0313 4.17561 15.2673 4.27274 15.5453 4.27274H17.5453C17.823 4.27274 18.0592 4.17561 18.2537 3.98107C18.448 3.78682 18.5452 3.5508 18.5452 3.27289V1.27276C18.5452 0.99489 18.4482 0.758757 18.2537 0.564436Z" fill="#7B7CA6"></path></svg></svg>